<?xml version="1.0" encoding="utf-8"?>
<!-- Generator: Adobe Illustrator 25.4.1, SVG Export Plug-In . SVG Version: 6.00 Build 0)  -->
<svg version="1.1" id="Warstwa_1" xmlns="http://www.w3.org/2000/svg" xmlns:xlink="http://www.w3.org/1999/xlink" x="0px" y="0px"
	 viewBox="0 0 512 512" style="enable-background:new 0 0 512 512;" xml:space="preserve">
<style type="text/css">
	.st0{display:none;}
	.st1{display:inline;}
	.st2{fill:#FFFFFF;}
	.st3{display:inline;opacity:0.25;}
	.st4{fill:#A9E831;}
	.st5{fill:#AFD120;}
	.st6{fill:#8CAF1E;}
	.st7{fill:#233A1B;}
	.st8{fill:#254F15;stroke:#233A1B;stroke-width:14;stroke-linecap:round;stroke-linejoin:round;stroke-miterlimit:10;}
	.st9{fill:#4AA530;}
	.st10{fill:#4EBC2A;}
	.st11{fill:#5ECC36;}
	.st12{fill:#69E237;}
	.st13{fill:none;stroke:#439129;stroke-width:12;stroke-linecap:round;stroke-linejoin:round;stroke-miterlimit:10;}
	.st14{fill:#DDF9D4;}
	.st15{fill:#9FE673;}
	.st16{fill:#7CC759;}
	.st17{fill:#1F3B1D;}
	.st18{fill:#3F9E3A;}
	.st19{fill:#41B238;}
	.st20{fill:#4DC243;}
	.st21{fill:#57D649;}
	.st22{fill:none;stroke:#388B31;stroke-width:12;stroke-linecap:round;stroke-linejoin:round;stroke-miterlimit:10;}
</style>
<g id="Warstwa_1_00000111910366503494299500000000867272160933404047_" class="st0">
	<g id="Warstwa_1_00000071545219004489845430000011856172468350249633_" class="st1">
	</g>
	<g id="Warstwa_7" class="st1">
	</g>
	<g id="Warstwa_5_kopia" class="st1">
		<rect class="st2" width="512" height="512"/>
	</g>
	<g id="Warstwa_5" class="st3">
		<rect class="st4" width="512" height="512"/>
	</g>
	<g id="Warstwa_3" class="st1">
		<g>
			<path class="st5" d="M254,506.3c-26.7,0-46.5-3.6-54.2-9.9c-4.5-3.7-3.5-14.9-2.1-31.9c1-11.8,2.3-26.4,2.3-44.5
				c0-38.4-4.4-59.7-11.7-95c-1.9-9.1-4-19.4-6.3-31.1c1.9-12.4,7.9-29.9,15.6-29.9c0.2,0,0.4,0,0.7,0c13.3,1.5,38,33.6,49.9,72.8
				c0.8,2.5,3.1,4.3,5.7,4.3c0.1,0,0.1,0,0.2,0c2.7-0.1,5-1.9,5.7-4.5c6.3-25.4,19.4-49.1,23.8-56.8l45.1-4
				c-4.1,23.6-16.4,96.1-19.7,144.8c-2.1,31.4,0.4,47.2,2.1,57.7c1.4,8.8,1.9,11.5-1.3,16.8c-6.8,11.4-35.1,11.4-50.3,11.4
				L254,506.3z"/>
			<path class="st6" d="M197.8,269.9c2.8,0.4,10.7,5.1,21.3,20.1c9.7,13.7,18.2,31.4,23.4,48.5c1.5,5.1,6.2,8.5,11.5,8.5
				c0.1,0,0.2,0,0.3,0c5.4-0.1,10-3.9,11.3-9.1c5.5-22.2,16.4-43.2,21.6-52.5l34.2-3.1C316.4,311.4,306,375,303,420
				c-2.2,32.1,0.6,48.9,2.2,59c1.4,8.8,1.4,9.5-0.5,12.7c-1,1.7-4.3,4.7-15,6.7c-9.2,1.7-20.4,1.8-30.2,1.8h-2.8H254
				c-29.4,0-45.3-4.4-50.4-8.6c0,0-0.8-1.1-1-5.9c-0.2-5.1,0.4-12,1.2-20.8c1-11.9,2.3-26.7,2.3-45c0-39-4.4-60.5-11.8-96.2
				c-1.8-8.8-3.9-18.7-6-30c0.4-2.4,1.3-6.9,2.9-11.6C193.9,273.6,196.8,270.5,197.8,269.9 M197.7,257.9
				c-16.8,0-21.7,36.1-21.7,36.1c11,57,18,78,18,126s-9,72,2,81s37,11.3,58,11.3c1.8,0,3.6,0,5.5,0c20.6,0,47.2-0.6,55.5-14.3
				c9-15-4-18.2,0-77.1S336,269,336,269l-56,5c0,0-18,29-26,61c-11.5-37.7-37.1-75-55-77C198.5,257.9,198.1,257.9,197.7,257.9
				L197.7,257.9z"/>
		</g>
	</g>
	<g id="Warstwa_3_kopia" class="st1">
		<g>
			<path class="st5" d="M271.7,506.4c-3.6,0-7,0-10.3,0c-2.9,0-5.6,0-8.1,0h-6.4c-20.3,0-62.7,0-72.5-9.6c-7.7-7.6-4.3-18.8,2-36.4
				c4.3-12.1,9.2-25.8,9.2-40.3c0-33.8-6.2-54.3-14.8-82.7c-3.7-12.3-8-26.3-12.3-43.4c1.3-5.6,7.5-30,21.9-30c0.4,0,0.8,0,1.2,0.1
				c18.7,1.6,53.5,34.6,68.7,73.2c0.9,2.3,3.1,3.8,5.6,3.8c0.1,0,0.1,0,0.2,0c2.5-0.1,4.7-1.7,5.5-4.2c8.3-25.7,23.7-49.7,28.6-57.1
				l61.1-4.2c-6.7,24.2-25.1,95.7-25.1,145.3c0,18.8,6,31.8,10.8,42.3c5.7,12.5,9.1,20,2.1,31.7c-1.4,2.4-6.5,6.7-24.4,9.3
				C301.1,506.1,284.6,506.4,271.7,506.4z"/>
			<path class="st6" d="M180.5,269.9c0.2,0,0.5,0,0.7,0c6.2,0.5,18,6.5,32.3,21.4c13.4,13.9,24.8,31.4,31.3,48
				c1.8,4.6,6.2,7.6,11.2,7.6c0.1,0,0.2,0,0.4,0c5.1-0.2,9.5-3.5,11-8.3c7.3-22.6,20.4-44,26.3-53.1l49.7-3.4
				c-7.9,29.7-23.1,93.2-23.1,138.7c0,20.1,6.3,33.8,11.3,44.8c6,13,7.6,17.6,2.4,26.1c0,0-2.9,4-20.7,6.5
				c-13.2,1.8-29.2,2.1-41.7,2.1c-3.6,0-7,0-10.2,0c-2.9,0-5.6,0-8.1,0h-3.1h-3.3c-13.7,0-29.5-0.1-43.1-1.5
				c-19.8-2-24.4-5.7-25.1-6.4c-2-1.9-3.1-4.1-2.6-9.1c0.6-5.8,3.2-13.2,6-21c4.5-12.5,9.6-26.8,9.6-42.3c0-34.7-6.7-56.6-15.1-84.4
				c-3.6-11.9-7.7-25.4-11.9-41.8C167,284.3,173.1,269.9,180.5,269.9 M180.5,257.9c-21.7,0-28,36.1-28,36.1
				c14.2,57,27.3,78,27.3,126c0,33-27.8,63-9.4,81c11.1,10.9,49.5,11.3,76.7,11.3c2.2,0,4.3,0,6.4,0c5.3,0,11.6,0.1,18.3,0.1
				c28.1,0,64.7-1.3,72.6-14.4c15.7-26-12-38-12-77.1c0-59.1,27.2-151.9,27.2-151.9l-72.5,5c0,0-20.7,29-31,61
				c-14.8-37.7-50.6-75-73.7-77C181.7,257.9,181.1,257.9,180.5,257.9L180.5,257.9z"/>
		</g>
	</g>
	<g id="Warstwa_4" class="st1">
		<g>
			<circle class="st7" cx="208.5" cy="368" r="14.5"/>
			<circle class="st7" cx="303.5" cy="368" r="14.5"/>
		</g>
		<path class="st8" d="M276,386.8c0,11-9,17.3-20,17.3s-20-6.3-20-17.3c0,0,10,4.2,20,4.2S276,386.8,276,386.8z"/>
	</g>
	<g id="Warstwa_2_00000106124961320714178670000000275559852095648423_" class="st1">
		<circle class="st9" cx="139" cy="177" r="73"/>
		<circle class="st10" cx="123.5" cy="282.5" r="61.5"/>
		<circle class="st9" cx="370" cy="177" r="73"/>
		<circle class="st10" cx="390.5" cy="282.5" r="61.5"/>
		<circle class="st10" cx="256" cy="152" r="89"/>
		<circle class="st11" cx="173.5" cy="238.5" r="61.5"/>
		<circle class="st11" cx="336.5" cy="238.5" r="61.5"/>
		<circle class="st12" cx="255.5" cy="230.5" r="69.5"/>
		<path class="st13" d="M420.9,229.4c13.5-13.3,21.9-31.7,21.9-52.1c0-40.3-32.7-73-73-73c-12.4,0-24,3.1-34.2,8.5
			c-14.6-29.3-44.8-49.5-79.8-49.5c-35.5,0-66.1,20.8-80.4,50.8c-10.8-6.2-23.2-9.8-36.6-9.8c-40.3,0-73,32.7-73,73
			c0,21.4,9.2,40.7,23.9,54c-16.8,11-27.9,29.9-27.9,51.5c0,34,27.5,61.5,61.5,61.5c28.1,0,51.8-18.9,59.2-44.7
			c11.5-1.7,21.9-6.6,30.4-13.8c11.7,9.1,26.4,14.5,42.4,14.5c15.7,0,30.2-5.2,41.9-14c9.4,7.8,21.2,12.8,34.1,13.8
			c7.5,25.6,31.1,44.2,59,44.2c34,0,61.5-27.5,61.5-61.5C451.8,259.9,439.3,240,420.9,229.4z"/>
	</g>
	<g id="Warstwa_2_kopia" class="st1">
	</g>
</g>
<g id="Warstwa_1_kopia">
	<g id="Warstwa_1_00000127726870803019511800000015051786657045074567_" class="st0">
	</g>
	<g id="Warstwa_7_00000002358249529909648540000013128727089623489923_">
	</g>
	<g id="Warstwa_5_kopia_00000034053623397005437010000001327459464778475447_">
		<rect class="st2" width="512" height="512"/>
	</g>
	<g id="Warstwa_5_00000018217965668046326830000015390102684555649201_">
		<g>
			<rect class="st14" width="512" height="512"/>
		</g>
	</g>
	<g id="Warstwa_3_00000064323462834348637750000011069857746476589195_" class="st0">
		<g class="st1">
			<path class="st5" d="M254,506.3c-26.7,0-46.5-3.6-54.2-9.9c-4.5-3.7-3.5-14.9-2.1-31.9c1-11.8,2.3-26.4,2.3-44.5
				c0-38.4-4.4-59.7-11.7-95c-1.9-9.1-4-19.4-6.3-31.1c1.9-12.4,7.9-29.9,15.6-29.9c0.2,0,0.4,0,0.7,0c13.3,1.5,38,33.6,49.9,72.8
				c0.8,2.5,3.1,4.3,5.7,4.3c0.1,0,0.1,0,0.2,0c2.7-0.1,5-1.9,5.7-4.5c6.3-25.4,19.4-49.1,23.8-56.8l45.1-4
				c-4.1,23.6-16.4,96.1-19.7,144.8c-2.1,31.4,0.4,47.2,2.1,57.7c1.4,8.8,1.9,11.5-1.3,16.8c-6.8,11.4-35.1,11.4-50.3,11.4
				L254,506.3z"/>
			<path class="st6" d="M197.8,269.9c2.8,0.4,10.7,5.1,21.3,20.1c9.7,13.7,18.2,31.4,23.4,48.5c1.5,5.1,6.2,8.5,11.5,8.5
				c0.1,0,0.2,0,0.3,0c5.4-0.1,10-3.9,11.3-9.1c5.5-22.2,16.4-43.2,21.6-52.5l34.2-3.1C316.4,311.4,306,375,303,420
				c-2.2,32.1,0.6,48.9,2.2,59c1.4,8.8,1.4,9.5-0.5,12.7c-1,1.7-4.3,4.7-15,6.7c-9.2,1.7-20.4,1.8-30.2,1.8h-2.8H254
				c-29.4,0-45.3-4.4-50.4-8.6c0,0-0.8-1.1-1-5.9c-0.2-5.1,0.4-12,1.2-20.8c1-11.9,2.3-26.7,2.3-45c0-39-4.4-60.5-11.8-96.2
				c-1.8-8.8-3.9-18.7-6-30c0.4-2.4,1.3-6.9,2.9-11.6C193.9,273.6,196.8,270.5,197.8,269.9 M197.7,257.9
				c-16.8,0-21.7,36.1-21.7,36.1c11,57,18,78,18,126s-9,72,2,81s37,11.3,58,11.3c1.8,0,3.6,0,5.5,0c20.6,0,47.2-0.6,55.5-14.3
				c9-15-4-18.2,0-77.1S336,269,336,269l-56,5c0,0-18,29-26,61c-11.5-37.7-37.1-75-55-77C198.5,257.9,198.1,257.9,197.7,257.9
				L197.7,257.9z"/>
		</g>
	</g>
	<g id="Warstwa_3_kopia_00000145024843108426216470000016510548897035660673_">
		<g>
			<path class="st15" d="M271.7,506.4c-3.6,0-7,0-10.3,0c-2.9,0-5.6,0-8.1,0h-6.4c-20.3,0-62.7,0-72.5-9.6c-7.7-7.6-4.3-18.8,2-36.4
				c4.3-12.1,9.2-25.8,9.2-40.3c0-33.8-6.2-54.3-14.8-82.7c-3.7-12.3-8-26.3-12.3-43.4c1.3-5.6,7.5-30,21.9-30c0.4,0,0.8,0,1.2,0.1
				c18.7,1.6,53.5,34.6,68.7,73.2c0.9,2.3,3.1,3.8,5.6,3.8c0.1,0,0.1,0,0.2,0c2.5-0.1,4.7-1.7,5.5-4.2c8.3-25.7,23.7-49.7,28.6-57.1
				l61.1-4.2c-6.7,24.2-25.1,95.7-25.1,145.3c0,18.8,6,31.8,10.8,42.3c5.7,12.5,9.1,20,2.1,31.7c-1.4,2.4-6.5,6.7-24.4,9.3
				C301.1,506.1,284.6,506.4,271.7,506.4z"/>
			<path class="st16" d="M180.5,269.9c0.2,0,0.5,0,0.7,0c6.2,0.5,18,6.5,32.3,21.4c13.4,13.9,24.8,31.4,31.3,48
				c1.8,4.6,6.2,7.6,11.2,7.6c0.1,0,0.2,0,0.4,0c5.1-0.2,9.5-3.5,11-8.3c7.3-22.6,20.4-44,26.3-53.1l49.7-3.4
				c-7.9,29.7-23.1,93.2-23.1,138.7c0,20.1,6.3,33.8,11.3,44.8c6,13,7.6,17.6,2.4,26.1c0,0-2.9,4-20.7,6.5
				c-13.2,1.8-29.2,2.1-41.7,2.1c-3.6,0-7,0-10.2,0c-2.9,0-5.6,0-8.1,0h-3.1h-3.3c-13.7,0-29.5-0.1-43.1-1.5
				c-19.8-2-24.4-5.7-25.1-6.4c-2-1.9-3.1-4.1-2.6-9.1c0.6-5.8,3.2-13.2,6-21c4.5-12.5,9.6-26.8,9.6-42.3c0-34.7-6.7-56.6-15.1-84.4
				c-3.6-11.9-7.7-25.4-11.9-41.8C167,284.3,173.1,269.9,180.5,269.9 M180.5,257.9c-21.7,0-28,36.1-28,36.1
				c14.2,57,27.3,78,27.3,126c0,33-27.8,63-9.4,81c11.1,10.9,49.5,11.3,76.7,11.3c2.2,0,4.3,0,6.4,0c5.3,0,11.6,0.1,18.3,0.1
				c28.1,0,64.7-1.3,72.6-14.4c15.7-26-12-38-12-77.1c0-59.1,27.2-151.9,27.2-151.9l-72.5,5c0,0-20.7,29-31,61
				c-14.8-37.7-50.6-75-73.7-77C181.7,257.9,181.1,257.9,180.5,257.9L180.5,257.9z"/>
		</g>
	</g>
	<g id="Warstwa_4_00000127725461280455258650000009944596377015625613_">
		<path class="st17" d="M279.9,381c-1.9-1.3-4.4-1.5-6.6-0.6c-0.1,0-8.9,3.7-17.3,3.7s-17.2-3.6-17.3-3.7c-2.2-0.9-4.6-0.7-6.6,0.6
			c-2,1.3-3.1,3.5-3.1,5.8c0,14.1,11.4,24.3,27,24.3c15.6,0,27-10.2,27-24.3C283,384.5,281.8,382.3,279.9,381z"/>
		<circle class="st17" cx="208.5" cy="368" r="14.5"/>
		<circle class="st17" cx="303.5" cy="368" r="14.5"/>
	</g>
	<g id="Warstwa_2_00000144331312609751492480000002573030605065423282_">
		<circle class="st18" cx="139" cy="177" r="73"/>
		<circle class="st19" cx="123.5" cy="282.5" r="61.5"/>
		<circle class="st18" cx="370" cy="177" r="73"/>
		<circle class="st19" cx="390.5" cy="282.5" r="61.5"/>
		<circle class="st19" cx="256" cy="152" r="89"/>
		<circle class="st20" cx="173.5" cy="238.5" r="61.5"/>
		<circle class="st20" cx="336.5" cy="238.5" r="61.5"/>
		<circle class="st21" cx="255.5" cy="230.5" r="69.5"/>
		<path class="st22" d="M420.9,229.4c13.5-13.3,21.9-31.7,21.9-52.1c0-40.3-32.7-73-73-73c-12.4,0-24,3.1-34.2,8.5
			c-14.6-29.3-44.8-49.5-79.8-49.5c-35.5,0-66.1,20.8-80.4,50.8c-10.8-6.2-23.2-9.8-36.6-9.8c-40.3,0-73,32.7-73,73
			c0,21.4,9.2,40.7,23.9,54c-16.8,11-27.9,29.9-27.9,51.5c0,34,27.5,61.5,61.5,61.5c28.1,0,51.8-18.9,59.2-44.7
			c11.5-1.7,21.9-6.6,30.4-13.8c11.7,9.1,26.4,14.5,42.4,14.5c15.7,0,30.2-5.2,41.9-14c9.4,7.8,21.2,12.8,34.1,13.8
			c7.5,25.6,31.1,44.2,59,44.2c34,0,61.5-27.5,61.5-61.5C451.8,259.9,439.3,240,420.9,229.4z"/>
	</g>
	<g id="Warstwa_2_kopia_00000157281460013842965570000018240850107407144331_">
	</g>
</g>
</svg>
