<?xml version="1.0" encoding="utf-8"?>
<!-- Generator: Adobe Illustrator 25.4.1, SVG Export Plug-In . SVG Version: 6.00 Build 0)  -->
<svg version="1.1" id="Warstwa_1" xmlns="http://www.w3.org/2000/svg" xmlns:xlink="http://www.w3.org/1999/xlink" x="0px" y="0px"
	 viewBox="0 0 512 512" style="enable-background:new 0 0 512 512;" xml:space="preserve">
<style type="text/css">
	.st0{fill:#9FE673;}
	.st1{fill:#7CC759;}
	.st2{display:none;fill:#1F3B1D;}
	.st3{fill:#1F3B1D;}
	.st4{fill:#3F9E3A;}
	.st5{fill:#41B238;}
	.st6{fill:#4DC243;}
	.st7{fill:#57D649;}
	.st8{fill:none;stroke:#388B31;stroke-width:12;stroke-linecap:round;stroke-linejoin:round;stroke-miterlimit:10;}
	.st9{fill:none;stroke:#1F3B1D;stroke-width:16;stroke-linecap:round;stroke-miterlimit:10;}
</style>
<g>
	<path class="st0" d="M271.7,506.4c-3.6,0-7,0-10.3,0c-2.9,0-5.6,0-8.1,0h-6.4c-20.3,0-62.7,0-72.5-9.6c-7.7-7.6-4.3-18.8,2-36.4
		c4.3-12.1,9.2-25.8,9.2-40.3c0-33.8-6.2-54.3-14.8-82.7c-3.7-12.3-8-26.3-12.3-43.4c1.3-5.6,7.5-30,21.9-30c0.4,0,0.8,0,1.2,0.1
		c18.7,1.6,53.5,34.6,68.7,73.2c0.9,2.3,3.1,3.8,5.6,3.8c0.1,0,0.1,0,0.2,0c2.5-0.1,4.7-1.7,5.5-4.2c8.3-25.7,23.7-49.7,28.6-57.1
		l61.1-4.2c-6.7,24.2-25.1,95.7-25.1,145.3c0,18.8,6,31.8,10.8,42.3c5.7,12.5,9.1,20,2.1,31.7c-1.4,2.4-6.5,6.7-24.4,9.3
		C301.1,506.1,284.6,506.4,271.7,506.4z"/>
	<path class="st1" d="M180.5,269.9c0.2,0,0.5,0,0.7,0c6.2,0.5,18,6.5,32.3,21.4c13.4,13.9,24.8,31.4,31.3,48
		c1.8,4.6,6.2,7.6,11.2,7.6c0.1,0,0.2,0,0.4,0c5.1-0.2,9.5-3.5,11-8.3c7.3-22.6,20.4-44,26.3-53.1l49.7-3.4
		c-7.9,29.7-23.1,93.2-23.1,138.7c0,20.1,6.3,33.8,11.3,44.8c6,13,7.6,17.6,2.4,26.1c0,0-2.9,4-20.7,6.5
		c-13.2,1.8-29.2,2.1-41.7,2.1c-3.6,0-7,0-10.2,0c-2.9,0-5.6,0-8.1,0h-3.1h-3.3c-13.7,0-29.5-0.1-43.1-1.5
		c-19.8-2-24.4-5.7-25.1-6.4c-2-1.9-3.1-4.1-2.6-9.1c0.6-5.8,3.2-13.2,6-21c4.5-12.5,9.6-26.8,9.6-42.3c0-34.7-6.7-56.6-15.1-84.4
		c-3.6-11.9-7.7-25.4-11.9-41.8C167,284.3,173.1,269.9,180.5,269.9 M180.5,257.9c-21.7,0-28,36.1-28,36.1c14.2,57,27.3,78,27.3,126
		c0,33-27.8,63-9.4,81c11.1,10.9,49.5,11.3,76.7,11.3c2.2,0,4.3,0,6.4,0c5.3,0,11.6,0.1,18.3,0.1c28.1,0,64.7-1.3,72.6-14.4
		c15.7-26-12-38-12-77.1c0-59.1,27.2-151.9,27.2-151.9l-72.5,5c0,0-20.7,29-31,61c-14.8-37.7-50.6-75-73.7-77
		C181.7,257.9,181.1,257.9,180.5,257.9L180.5,257.9z"/>
</g>
<g id="Warstwa_4_00000127725461280455258650000009944596377015625613_">
	<path class="st2" d="M232.1,409.9c1.9,1.3,4.4,1.5,6.6,0.6c0.1,0,8.9-3.7,17.3-3.7s17.2,3.6,17.3,3.7c2.2,0.9,4.6,0.7,6.6-0.6
		c2-1.3,3.1-3.5,3.1-5.8c0-14.1-11.4-24.3-27-24.3s-27,10.2-27,24.3C229,406.4,230.2,408.6,232.1,409.9z"/>
	<circle class="st3" cx="208.5" cy="368" r="14.5"/>
	<circle class="st3" cx="303.5" cy="368" r="14.5"/>
</g>
<g id="Warstwa_2_00000144331312609751492480000002573030605065423282_">
	<circle class="st4" cx="139" cy="177" r="73"/>
	<circle class="st5" cx="123.5" cy="282.5" r="61.5"/>
	<circle class="st4" cx="370" cy="177" r="73"/>
	<circle class="st5" cx="390.5" cy="282.5" r="61.5"/>
	<circle class="st5" cx="256" cy="152" r="89"/>
	<circle class="st6" cx="173.5" cy="238.5" r="61.5"/>
	<circle class="st6" cx="336.5" cy="238.5" r="61.5"/>
	<circle class="st7" cx="255.5" cy="230.5" r="69.5"/>
	<path class="st8" d="M420.9,229.4c13.5-13.3,21.9-31.7,21.9-52.1c0-40.3-32.7-73-73-73c-12.4,0-24,3.1-34.2,8.5
		c-14.6-29.3-44.8-49.5-79.8-49.5c-35.5,0-66.1,20.8-80.4,50.8c-10.8-6.2-23.2-9.8-36.6-9.8c-40.3,0-73,32.7-73,73
		c0,21.4,9.2,40.7,23.9,54c-16.8,11-27.9,29.9-27.9,51.5c0,34,27.5,61.5,61.5,61.5c28.1,0,51.8-18.9,59.2-44.7
		c11.5-1.7,21.9-6.6,30.4-13.8c11.7,9.1,26.4,14.5,42.4,14.5c15.7,0,30.2-5.2,41.9-14c9.4,7.8,21.2,12.8,34.1,13.8
		c7.5,25.6,31.1,44.2,59,44.2c34,0,61.5-27.5,61.5-61.5C451.8,259.9,439.3,240,420.9,229.4z"/>
</g>
<path class="st9" d="M274.7,400.9c-2.8-7.6-10.1-13-18.7-13s-15.9,5.4-18.7,13"/>
</svg>
