<svg xmlns="http://www.w3.org/2000/svg" viewBox="0 0 32 32"><path d="M22.25,32H9.75a3.5,3.5,0,0,1-3.5-3.5V22.94A8.5,8.5,0,0,1,7.8,6.28,8.49,8.49,0,0,1,23.05,3.76h.45a8.5,8.5,0,0,1,2.25,16.69V28.5A3.5,3.5,0,0,1,22.25,32ZM8.48,8.25a6.49,6.49,0,0,0-1.06,12.9,1,1,0,0,1,.83,1V28.5A1.5,1.5,0,0,0,9.75,30h12.5a1.5,1.5,0,0,0,1.5-1.5V19.64a1,1,0,0,1,.83-1A6.49,6.49,0,0,0,23.5,5.75a7.72,7.72,0,0,0-.84.06,1,1,0,0,1-1-.5A6.49,6.49,0,0,0,9.6,7.42a1,1,0,0,1-1,.84Z"/><path d="M19.12,25.75a1,1,0,0,1-1-1v-5a1,1,0,0,1,2,0v5A1,1,0,0,1,19.12,25.75Z"/><path d="M12.88,25.75a1,1,0,0,1-1-1v-5a1,1,0,0,1,2,0v5A1,1,0,0,1,12.88,25.75Z"/></svg>