<svg xmlns="http://www.w3.org/2000/svg" viewBox="0 0 32 32"><path d="M29.41,2.59a2,2,0,0,0-2.82,0L22.76,6.41A17,17,0,0,0,.42,15.2a2,2,0,0,0,0,1.6,16.89,16.89,0,0,0,5.26,6.69l-3.09,3.1a2,2,0,1,0,2.82,2.82l24-24A2,2,0,0,0,29.41,2.59ZM4.47,16a13,13,0,0,1,7.81-6.45,6,6,0,0,0-1,8.36L8.54,20.63A12.92,12.92,0,0,1,4.47,16Z"/><path d="M31.58,15.2a16.2,16.2,0,0,0-2.39-3.91l-2.85,2.85A12,12,0,0,1,27.53,16a13,13,0,0,1-9.94,6.89l-3.94,3.94A15.3,15.3,0,0,0,16,27,17,17,0,0,0,31.58,16.8,2,2,0,0,0,31.58,15.2Z"/></svg>