<svg xmlns="http://www.w3.org/2000/svg" viewBox="0 0 48 48"><path d="M45.05,24.16l-1.67-1.67a2.82,2.82,0,0,0,.36-1.33,2.74,2.74,0,0,0-.81-1.95L28.79,5.07a2.82,2.82,0,0,0-3.27-.44L23.84,3A2.75,2.75,0,0,0,20,6.84l1.67,1.67a2.82,2.82,0,0,0-.36,1.33,2.74,2.74,0,0,0,.81,1.95L36.21,25.93a2.74,2.74,0,0,0,1.95.81,2.82,2.82,0,0,0,1.33-.36l1.67,1.67a2.76,2.76,0,0,0,3.89,0A2.76,2.76,0,0,0,45.05,24.16ZM21,4a1.25,1.25,0,0,1,.88-.37,1.29,1.29,0,0,1,.89.37L24.37,5.6,22.6,7.37,21,5.78A1.25,1.25,0,0,1,21,4ZM37.27,24.87,23.13,10.73a1.25,1.25,0,0,1,0-1.77L26,6.13a1.24,1.24,0,0,1,.88-.36,1.28,1.28,0,0,1,.89.36L41.87,20.27a1.25,1.25,0,0,1,0,1.77L39,24.87A1.25,1.25,0,0,1,37.27,24.87ZM44,27a1.25,1.25,0,0,1-1.77,0L40.63,25.4l1.77-1.77L44,25.22A1.25,1.25,0,0,1,44,27Z"/><path d="M35.75,32a5.12,5.12,0,0,1,0-.56,4.18,4.18,0,0,0-1.18-3.21l-.08-.09a12.56,12.56,0,0,1-1.61-1.91,4.18,4.18,0,0,0-1.52-1.52c-.16-.09-.33-.19-.5-.27a4,4,0,0,0-2.84-.32,4.35,4.35,0,0,1-2.72-.2,4,4,0,0,0-2.82-.08,10.68,10.68,0,0,0-2.08,1,4.44,4.44,0,0,0-1.6,1.74,3.26,3.26,0,0,1-1,1.12,4.55,4.55,0,0,0-1.54,1.73,10,10,0,0,0-.57,1.46,4.38,4.38,0,0,0,.22,3.1,3.87,3.87,0,0,1,.31,1.53,4.14,4.14,0,0,1-.06.7,4.2,4.2,0,0,0,.6,3c.13.21.27.43.42.65A4.41,4.41,0,0,0,21,41.75c.57,0,.9.26,1.54.88a7.89,7.89,0,0,0,3.25,2.08,3.11,3.11,0,0,0,1,.16,7.21,7.21,0,0,0,2.59-.65l.41-.17a4.19,4.19,0,0,0,2.3-2,2.37,2.37,0,0,1,1.28-1.22,4.07,4.07,0,0,0,2.23-2,10.84,10.84,0,0,0,.75-2,4.28,4.28,0,0,0-.22-2.75A5.86,5.86,0,0,1,35.75,32Zm-.84,4.46c0,.17-.11.33-.16.49a1.77,1.77,0,1,0-.58,1.34,2.62,2.62,0,0,1-1.32,1.17,3.84,3.84,0,0,0-2.1,1.95,2.67,2.67,0,0,1-1.49,1.24l-.44.17a4.05,4.05,0,0,1-2.58.47,6.51,6.51,0,0,1-2.69-1.74A3.48,3.48,0,0,0,21,40.25,2.84,2.84,0,0,1,18.46,39c-.14-.21-.27-.43-.4-.63a2.69,2.69,0,0,1-.39-1.92,6.12,6.12,0,0,0,.08-1,5.14,5.14,0,0,0-.45-2.15,2.88,2.88,0,0,1-.14-2,9.6,9.6,0,0,1,.48-1.26,3,3,0,0,1,1.05-1.14,4.87,4.87,0,0,0,1.46-1.63A3.06,3.06,0,0,1,21.2,26.1a8.67,8.67,0,0,1,1.8-.84,2.42,2.42,0,0,1,1.74,0,6,6,0,0,0,3.67.28,2.59,2.59,0,0,1,1.8.19,4.63,4.63,0,0,1,.43.24,2.61,2.61,0,0,1,1,1,13.39,13.39,0,0,0,1.82,2.18l.08.09a2.62,2.62,0,0,1,.77,2c0,.23,0,.46,0,.7a7.14,7.14,0,0,0,.49,2.66A2.89,2.89,0,0,1,34.91,36.46ZM33.25,37c0,.28-.5.28-.5,0a.25.25,0,0,1,.5,0Z"/><path d="M21,33.25A2.75,2.75,0,1,0,23.75,36,2.75,2.75,0,0,0,21,33.25Zm0,4A1.25,1.25,0,1,1,22.25,36,1.25,1.25,0,0,1,21,37.25Z"/><path d="M27,35.25A1.75,1.75,0,1,0,28.75,37,1.76,1.76,0,0,0,27,35.25ZM26.75,37a.25.25,0,0,1,.5,0C27.25,37.28,26.75,37.28,26.75,37Z"/><path d="M22,26.25A1.75,1.75,0,1,0,23.75,28,1.76,1.76,0,0,0,22,26.25ZM21.75,28a.25.25,0,0,1,.5,0C22.25,28.28,21.75,28.28,21.75,28Z"/><path d="M29,27.25A2.75,2.75,0,1,0,31.75,30,2.75,2.75,0,0,0,29,27.25Zm0,4A1.25,1.25,0,1,1,30.25,30,1.25,1.25,0,0,1,29,31.25Z"/><path d="M18.43,23.48a8.23,8.23,0,0,0,.63-1,3.6,3.6,0,0,0,.35-1.81,2.23,2.23,0,0,1,.19-1,3.53,3.53,0,0,0,.33-1.85,8.46,8.46,0,0,0-.37-1.73,3.22,3.22,0,0,0-1.42-1.75,3.09,3.09,0,0,1-.91-.79,3.25,3.25,0,0,1-.38-.65,3.28,3.28,0,0,0-1.57-1.65l-.4-.18a3.52,3.52,0,0,0-1.7-.22,9.8,9.8,0,0,1-1.92-.1,3.35,3.35,0,0,0-2.6.81,3.88,3.88,0,0,1-.31.26A4.12,4.12,0,0,1,7,12.49a3.5,3.5,0,0,0-1.83,1.19,8.12,8.12,0,0,0-.85,1.38,3.3,3.3,0,0,0-.21,2.4A1.6,1.6,0,0,1,4,18.64,3.23,3.23,0,0,0,3.81,21a5.94,5.94,0,0,0,1.66,2.49,4.67,4.67,0,0,0,2.21,1,3,3,0,0,1,1.55.73A3.54,3.54,0,0,0,12,26.77h.23l.59,0A3.37,3.37,0,0,0,15,25.65a4.1,4.1,0,0,1,.37-.33,2.63,2.63,0,0,1,1-.48A3.44,3.44,0,0,0,18.43,23.48ZM16.25,16A1.25,1.25,0,1,1,15,14.75,1.25,1.25,0,0,1,16.25,16Zm-1.77,8.13a4,4,0,0,0-.56.51,1.88,1.88,0,0,1-1.21.58l-.56.05a2,2,0,0,1-1.73-.88,4.06,4.06,0,0,0-2.35-1.25,3.54,3.54,0,0,1-1.54-.67,4.44,4.44,0,0,1-1.28-1.85,1.79,1.79,0,0,1,0-1.32A3.12,3.12,0,0,0,5.51,17a1.8,1.8,0,0,1,.13-1.3,6.83,6.83,0,0,1,.69-1.13,2,2,0,0,1,1.06-.65A5.61,5.61,0,0,0,9.26,13c.15-.12.29-.23.42-.35a1.75,1.75,0,0,1,1.23-.43h.28a10.23,10.23,0,0,0,2.18.09,1.89,1.89,0,0,1,.94.12l.32.15a1.69,1.69,0,0,1,.73.72,2.2,2.2,0,0,0-.36,0A2.75,2.75,0,1,0,17.75,16s0-.06,0-.09a1.6,1.6,0,0,1,.39.62,6.24,6.24,0,0,1,.31,1.41A2,2,0,0,1,18.23,19a3.68,3.68,0,0,0-.32,1.7,2.09,2.09,0,0,1-.18,1.05,6.54,6.54,0,0,1-.52.84,1.93,1.93,0,0,1-1.18.77A4.2,4.2,0,0,0,14.48,24.13Z"/><path d="M13,20.25A1.75,1.75,0,1,0,14.75,22,1.76,1.76,0,0,0,13,20.25ZM12.75,22a.25.25,0,0,1,.5,0C13.25,22.28,12.75,22.28,12.75,22Z"/><path d="M9,15.25A1.75,1.75,0,1,0,10.75,17,1.76,1.76,0,0,0,9,15.25ZM8.75,17a.25.25,0,0,1,.5,0C9.25,17.28,8.75,17.28,8.75,17Z"/></svg>