<svg xmlns="http://www.w3.org/2000/svg" viewBox="0 0 32 32"><path d="M22,31.13A.79.79,0,0,0,22,31s0,0,0-.05a.78.78,0,0,0,0-.21.85.85,0,0,0-.06-.17.65.65,0,0,0-.1-.15,1,1,0,0,0-.13-.16s0,0,0,0S20.23,29.19,17,29V19c4.4-.38,7-3.29,7-8A26.58,26.58,0,0,0,21.39.55,1,1,0,0,0,20.5,0h-9a1,1,0,0,0-.92.62C10.47.87,8,6.85,8,11a7.88,7.88,0,0,0,7,7.93V29c-3.23.16-4.48,1.08-4.62,1.19s0,0,0,0a1,1,0,0,0-.13.16.71.71,0,0,0-.1.14,1.52,1.52,0,0,0-.06.2.76.76,0,0,0,0,.16A.24.24,0,0,0,10,31a1,1,0,0,0,0,.18s0,.06,0,.09a1.3,1.3,0,0,0,.16.31h0a1.12,1.12,0,0,0,.28.25h0a.93.93,0,0,0,.33.12h0A.53.53,0,0,0,11,32H21a1,1,0,0,0,.41-.09l.09-.06a1.16,1.16,0,0,0,.24-.2s0,0,0,0a.39.39,0,0,0,.06-.11.76.76,0,0,0,.09-.18A.51.51,0,0,0,22,31.13ZM12.18,2h7.68a27.25,27.25,0,0,1,1.89,6.22,9,9,0,0,0-6.23.53c-1.81,1-4.13.55-5.34.22A38.09,38.09,0,0,1,12.18,2ZM10,11h0a11.89,11.89,0,0,0,2.85.37,7.52,7.52,0,0,0,3.63-.85c1.89-1,4.36-.5,5.5-.16,0,.21,0,.43,0,.65,0,5-3.26,6-6,6A5.94,5.94,0,0,1,10,11Z"/></svg>