<svg xmlns="http://www.w3.org/2000/svg" viewBox="0 0 32 32"><path d="M31,12A10.5,10.5,0,0,0,11.35,6.86a10.5,10.5,0,0,0-4,4A10.49,10.49,0,1,0,21.64,25.14a10.5,10.5,0,0,0,4-4A10.53,10.53,0,0,0,31,12ZM12.5,28.5A8.49,8.49,0,0,1,6.13,14.39,9.54,9.54,0,0,0,6,16,10.51,10.51,0,0,0,16.5,26.5a9.54,9.54,0,0,0,1.61-.13A8.47,8.47,0,0,1,12.5,28.5Zm4-4a8.49,8.49,0,0,1-6.36-14.12A10.84,10.84,0,0,0,10,12,10.51,10.51,0,0,0,20.5,22.5a10.84,10.84,0,0,0,1.62-.14A8.43,8.43,0,0,1,16.5,24.5Zm4-4A8.5,8.5,0,1,1,29,12,8.51,8.51,0,0,1,20.5,20.5Z"/><path d="M21.88,6.08a1,1,0,0,0-1.09.21l-4,4a1,1,0,0,0,1.42,1.42l2.29-2.3V17a1,1,0,0,0,2,0V7A1,1,0,0,0,21.88,6.08Z"/></svg>