<svg xmlns="http://www.w3.org/2000/svg" viewBox="0 0 32 32"><path d="M20.57,17.11a2,2,0,0,1-1.07-1.76V11A3,3,0,0,0,22,8V7a2,2,0,0,0-2-2h-.5V4a3,3,0,0,0-3-3h-1a3,3,0,0,0-3,3V5H12a2,2,0,0,0-2,2V8a3,3,0,0,0,2.5,3v4.39a2,2,0,0,1-1.06,1.76A9.92,9.92,0,0,0,7.73,31.56a1,1,0,0,0,.83.44H23.48a1,1,0,0,0,.83-.44,10,10,0,0,0-3.74-14.45ZM14.5,4a1,1,0,0,1,1-1h1a1,1,0,0,1,1,1V5h-3Zm8.42,26H9.11A7.82,7.82,0,0,1,8,26.1a7.94,7.94,0,0,1,4.35-7.21,4,4,0,0,0,2.15-3.54V10a1,1,0,0,0-1-1H13a1,1,0,0,1-1-1V7h8V8a1,1,0,0,1-1,1h-.5a1,1,0,0,0-1,1v5.35a4,4,0,0,0,2.15,3.54A8,8,0,0,1,22.92,30Z"/></svg>