<svg xmlns="http://www.w3.org/2000/svg" viewBox="0 0 32 32"><path d="M31.43,8.82l-1.68-1.2a2,2,0,0,1-.74-1l-.27-.84a4,4,0,0,0-2.53-2.53L25.37,3a2,2,0,0,1-1-.74L23.18.57a1,1,0,0,0-1.74.19L18.6,7.39A8.89,8.89,0,0,0,16,7a9,9,0,0,0-9,9,8.89,8.89,0,0,0,.39,2.6L.76,21.44a1,1,0,0,0-.19,1.74l1.68,1.2a2,2,0,0,1,.74,1l.27.84a4,4,0,0,0,2.53,2.53l.84.27a2,2,0,0,1,1,.74l1.2,1.68a1,1,0,0,0,.82.42h.1a1,1,0,0,0,.82-.6l2.84-6.63A8.89,8.89,0,0,0,16,25a9,9,0,0,0,9-9,8.89,8.89,0,0,0-.39-2.6l6.63-2.84a1,1,0,0,0,.19-1.74Zm-22,20-.17-.23a4,4,0,0,0-2-1.47l-.83-.28a2,2,0,0,1-1.27-1.27l-.28-.83a4,4,0,0,0-1.47-2l-.23-.17,5-2.14A8.35,8.35,0,0,0,9,21.61L7.51,23.08a1,1,0,0,0,.7,1.71,1,1,0,0,0,.71-.3L10.39,23a8.35,8.35,0,0,0,1.17.8ZM16,23a7,7,0,1,1,7-7A7,7,0,0,1,16,23Zm7.82-11.44a8.35,8.35,0,0,0-.8-1.17l1.9-1.9a1,1,0,1,0-1.41-1.41L21.61,9a8.35,8.35,0,0,0-1.17-.8l2.14-5,.17.23a4,4,0,0,0,2,1.47l.83.28a2,2,0,0,1,1.27,1.27l.28.83a4,4,0,0,0,1.47,2l.23.17Z"/></svg>