<svg xmlns="http://www.w3.org/2000/svg" viewBox="0 0 32 32"><path d="M12,30H2V10H15v8a1,1,0,0,0,2,0V9.33l2-2.66,2,2.66v4.44a1,1,0,0,0,2,0V9a1,1,0,0,0-.2-.6L20,4.67V3a3,3,0,0,0-3-3H6A3,3,0,0,0,3,3V4.67L.2,8.4h0A1,1,0,0,0,0,9V31a1,1,0,0,0,1,1H12a1,1,0,0,0,0-2ZM15.5,8H3L4.5,6H17ZM5,3A1,1,0,0,1,6,2H17a1,1,0,0,1,1,1V4H5Z"/><path d="M25.37,14.77a1,1,0,0,0-.8.15l-9.13,6.25a.59.59,0,0,0-.08.08l-.1.09a1.43,1.43,0,0,0-.14.2.47.47,0,0,1,0,.1A1,1,0,0,0,15,22h0v9a1,1,0,0,0,1,1H31a1,1,0,0,0,1-1V22C32,16.45,25.64,14.84,25.37,14.77Zm-.06,2.07c1.09.35,4,1.53,4.58,4.16H19.23ZM19,24a1,1,0,1,1-1-1A1,1,0,0,1,19,24Zm5,5.5a1.5,1.5,0,0,1,3,0,1.64,1.64,0,0,1-.09.5H24.09A1.64,1.64,0,0,1,24,29.5Zm6,.5H28.94a2.84,2.84,0,0,0,.06-.5,3.5,3.5,0,0,0-7,0,2.84,2.84,0,0,0,.06.5H17V26.82A3,3,0,0,0,20.82,23H30Z"/></svg>