<svg xmlns="http://www.w3.org/2000/svg" viewBox="0 0 32 32"><path d="M29.68,3.57c-.19-.22-.39-.44-.6-.65s-.43-.41-.65-.6A8.58,8.58,0,0,0,20.21.75,9.26,9.26,0,0,0,14,7.17,9.8,9.8,0,0,1,7.17,14,9.26,9.26,0,0,0,.75,20.21a8.58,8.58,0,0,0,1.57,8.22c.19.22.39.44.6.65s.43.41.65.6a8.47,8.47,0,0,0,5.48,2,9,9,0,0,0,2.74-.43A9.26,9.26,0,0,0,18,24.83,9.8,9.8,0,0,1,24.83,18a9.26,9.26,0,0,0,6.42-6.21A8.58,8.58,0,0,0,29.68,3.57Zm-2,.74h0c.2.53-.62,2.17-2.09,4a12.25,12.25,0,0,0-.9-1,12.38,12.38,0,0,0-1-.9C25.5,5,27.13,4.13,27.64,4.31ZM20.09,13.4c-.24-.25-.48-.51-.73-.76l-.76-.73.46-.63a22.54,22.54,0,0,1,3-3.5A8.89,8.89,0,0,1,24.22,9.9a22.54,22.54,0,0,1-3.5,3ZM9.9,24.22A8.89,8.89,0,0,1,7.78,22.1a22.54,22.54,0,0,1,3.5-3l.63-.46c.24.25.48.51.73.76l.76.73-.46.63A23.09,23.09,0,0,1,9.9,24.22Zm4.16-6.28c-.2-.2-.38-.39-.56-.59a35,35,0,0,0,3.85-3.85c.19.19.39.36.59.56l.57.59a34.23,34.23,0,0,0-3.86,3.85C14.45,18.32,14.26,18.14,14.06,17.94ZM16.77,5.79a10.27,10.27,0,0,1,3.58.94,24.89,24.89,0,0,0-2.93,3.41h0l-.32.43c-.57-.47-1.15-.91-1.73-1.32a12.06,12.06,0,0,0,.56-1.56A6.69,6.69,0,0,1,16.77,5.79Zm4-3.14a6.76,6.76,0,0,1,4.78.24,16.43,16.43,0,0,0-3.65,2.4A12.22,12.22,0,0,0,18.33,4,7.35,7.35,0,0,1,20.81,2.65ZM14.4,11c.47.34,1,.73,1.46,1.14a33.15,33.15,0,0,1-3.7,3.7c-.42-.5-.8-1-1.15-1.46A11.74,11.74,0,0,0,14.4,11ZM7.7,15.93a12.06,12.06,0,0,0,1.56-.56c.41.58.85,1.15,1.32,1.73l-.44.32a25.5,25.5,0,0,0-3.41,2.93,10.27,10.27,0,0,1-.94-3.58A6.69,6.69,0,0,1,7.7,15.93ZM2.89,25.59a6.71,6.71,0,0,1-.24-4.78A7.35,7.35,0,0,1,4,18.33a12.22,12.22,0,0,0,1.3,3.61A16.43,16.43,0,0,0,2.89,25.59Zm1.47,2.1h0c-.2-.53.62-2.18,2.09-4a10.9,10.9,0,0,0,1.92,1.92C6.51,27,4.88,27.86,4.36,27.69Zm6.83,1.66a6.73,6.73,0,0,1-4.77-.24,16.61,16.61,0,0,0,3.64-2.4A12.5,12.5,0,0,0,13.67,28,7.35,7.35,0,0,1,11.19,29.35Zm4.05-3.15a10.25,10.25,0,0,1-3.59-.93,24.84,24.84,0,0,0,2.93-3.42l.32-.43c.57.47,1.15.92,1.73,1.33a11.92,11.92,0,0,0-.56,1.55A7,7,0,0,1,15.24,26.2ZM17.59,21c-.46-.34-.95-.73-1.45-1.15a32.32,32.32,0,0,1,3.7-3.7c.42.5.81,1,1.14,1.46A11.77,11.77,0,0,0,17.59,21Zm6.71-4.92a11.92,11.92,0,0,0-1.55.56c-.41-.58-.86-1.16-1.33-1.73l.44-.32a24.21,24.21,0,0,0,3.41-2.93,10.27,10.27,0,0,1,.94,3.58A6.82,6.82,0,0,1,24.3,16.07Zm5.05-4.88A7.3,7.3,0,0,1,28,13.66a12.26,12.26,0,0,0-1.3-3.6,16.43,16.43,0,0,0,2.4-3.65A6.71,6.71,0,0,1,29.35,11.19Z"/></svg>