<svg xmlns="http://www.w3.org/2000/svg" viewBox="0 0 32 32"><path d="M16,29a3,3,0,0,1-2.12-.88L4.2,18.48a8.72,8.72,0,0,1-.4-12A8.49,8.49,0,0,1,16,6.24a8.33,8.33,0,0,1,6.14-2.49A8.45,8.45,0,0,1,28.2,6.43a8.72,8.72,0,0,1-.4,12.05l-9.68,9.68A3,3,0,0,1,16,29ZM10,5.75h-.1A6.46,6.46,0,0,0,5.25,7.8a6.71,6.71,0,0,0,.37,9.27l9.67,9.68a1,1,0,0,0,1.42,0l9.67-9.68a6.71,6.71,0,0,0,.37-9.27,6.46,6.46,0,0,0-4.64-2,6.57,6.57,0,0,0-4.7,1.9,6.16,6.16,0,0,0-.61.73,1,1,0,0,1-1.6,0,6.16,6.16,0,0,0-.61-.73A6.45,6.45,0,0,0,10,5.75Z"/></svg>