<svg xmlns="http://www.w3.org/2000/svg" viewBox="0 0 32 32"><path d="M31.71,14.41a4.62,4.62,0,0,0-.46-3.51A5.15,5.15,0,0,0,30,9.46l.9-1a1,1,0,1,0-1.51-1.31l-1.14,1.3c-.18-.08-.37-.15-.57-.22L29,3.32a1,1,0,0,0-1.93-.51L25.75,7.68l-.65-.1-.75-2.9a1,1,0,1,0-1.94.5l.64,2.44a5.21,5.21,0,0,0-1.74.61A4.69,4.69,0,0,0,19.15,11a38.86,38.86,0,0,0-.88,12,.41.41,0,0,0,0,.11c.07,1.32.19,2.7.35,4.17a3,3,0,0,0,2.2,2.56,3.06,3.06,0,0,0,.79.1A3,3,0,0,0,24,28.77a62.9,62.9,0,0,0,5.05-7.88s0,0,0,0A31.28,31.28,0,0,0,31.71,14.41Zm-9.3,13.17a1,1,0,0,1-1.79-.48c-.11-1-.19-1.88-.26-2.78l1.13.3a1.09,1.09,0,0,0,.26,0,1,1,0,0,0,.25-2l-1.77-.48a43.89,43.89,0,0,1,.15-6.7l2.4.65.26,0a1,1,0,0,0,1-.74,1,1,0,0,0-.71-1.23l-2.64-.7c.12-.68.26-1.34.43-2A2.61,2.61,0,0,1,22.31,10a3.72,3.72,0,0,1,1.87-.44,7.86,7.86,0,0,1,2,.3,5.2,5.2,0,0,1,3.31,2.07,2.67,2.67,0,0,1,.26,2,28.64,28.64,0,0,1-2.07,5.26l-1.94-.52a1,1,0,1,0-.52,1.93l1.5.4A63.37,63.37,0,0,1,22.41,27.58Z"/><path d="M9.5,13a8.11,8.11,0,0,1,5.14,1.77,1,1,0,0,0,1.27-1.55,9.76,9.76,0,0,0-3.33-1.75A6.9,6.9,0,0,1,15,11a1,1,0,0,0,0-2,10,10,0,0,0-4.5,1.2V8a1,1,0,0,0-2,0v2.2A10,10,0,0,0,4,9a1,1,0,0,0,0,2,7,7,0,0,1,2.42.47A8.64,8.64,0,0,0,0,19.5C0,24.19,4.26,28,9.5,28a10.17,10.17,0,0,0,6.31-2.14,1,1,0,1,0-1.25-1.57A8.13,8.13,0,0,1,9.5,26C5.36,26,2,23.08,2,19.5S5.36,13,9.5,13Z"/></svg>