<svg xmlns="http://www.w3.org/2000/svg" viewBox="0 0 32 32"><path d="M26,1H6A3,3,0,0,0,3,4V28a3,3,0,0,0,3,3H23a3,3,0,0,0,3-3V27a3,3,0,0,0,3-3V4A3,3,0,0,0,26,1ZM24,28a1,1,0,0,1-1,1H6a1,1,0,0,1-1-1V26.82A3,3,0,0,0,6,27H24Zm3-4a1,1,0,0,1-1,1H6a1,1,0,0,1-1-1V4A1,1,0,0,1,6,3H26a1,1,0,0,1,1,1Z"/><path d="M19.12,8.5a4,4,0,0,0-6.85,1.07,4,4,0,0,0-.77,7.64V19a2,2,0,0,0,2,2h5a2,2,0,0,0,2-2V16.21A4,4,0,0,0,19.12,8.5Zm.21,6a1,1,0,0,0-.83,1V19h-5V16.46a1,1,0,0,0-.83-1,2,2,0,0,1,.34-4h0a1,1,0,0,0,1-.83A2,2,0,0,1,17.74,10a1,1,0,0,0,1,.5l.26,0a2,2,0,0,1,.33,4Z"/></svg>