<svg xmlns="http://www.w3.org/2000/svg" viewBox="0 0 32 32"><path d="M11.34,8.68C9.17,7.93,8.44,7.2,7.76,3.77A1,1,0,0,0,6,3.37C.58,10.56,3.75,15.09,5.36,16.7a7.29,7.29,0,0,0,5.29,2.06,9.32,9.32,0,0,0,2.81-.41.37.37,0,0,0,.12-.07.51.51,0,0,0,.16-.09.8.8,0,0,0,.13-.13A1,1,0,0,0,14,17.9l0,0c.82-1.64,1.62-4.05.75-6.19A5.33,5.33,0,0,0,11.34,8.68Zm-4.57,6.6C4.5,13,4.37,9.9,6.37,6.4a6,6,0,0,0,4.32,4.17,3.37,3.37,0,0,1,2.23,1.84A4.12,4.12,0,0,1,13,14.77a6.16,6.16,0,0,0-3.94-2.59,1,1,0,0,0-.39,2,4.35,4.35,0,0,1,3.12,2.53A5.86,5.86,0,0,1,6.77,15.28Z"/><path d="M25.46,14.37a1,1,0,0,0-1.78.4c-.66,3.29-1.32,4.21-3.56,4.9a5.4,5.4,0,0,0-3.61,2.88c-.7,1.64-.4,3.71.89,6.3l0,0c0,.06.08.1.12.15a.62.62,0,0,0,.14.14.39.39,0,0,0,.14.08.5.5,0,0,0,.14.08,9.3,9.3,0,0,0,2.8.41,7.3,7.3,0,0,0,5.3-2.06C27.69,26.09,30.86,21.56,25.46,14.37Zm-.8,11.91a5.86,5.86,0,0,1-5.05,1.39,4.39,4.39,0,0,1,3.13-2.53A1,1,0,0,0,23.52,24a1,1,0,0,0-1.17-.79,6.09,6.09,0,0,0-4,2.67,3.89,3.89,0,0,1,0-2.51,3.45,3.45,0,0,1,2.37-1.76,5.87,5.87,0,0,0,4.36-4.17C27.07,20.91,26.94,24,24.66,26.28Z"/><path d="M20.57,12.58a1.07,1.07,0,0,0,.25,0,1,1,0,0,0,.74-.8c.32-1.86.63-2.2,1.7-2.56a3.5,3.5,0,0,0,2.3-2c.43-1.08.22-2.38-.63-4a1,1,0,0,0-.59-.49A5.26,5.26,0,0,0,19.25,4c-1,1-2.9,3.91.54,8.25A1,1,0,0,0,20.57,12.58Zm.13-7.26a2.76,2.76,0,0,1,2.05-.78,3.61,3.61,0,0,1,.62,0,2.49,2.49,0,0,1,.33,1.9,1.62,1.62,0,0,1-1.08.8,3.81,3.81,0,0,0-2.38,1.89A3.28,3.28,0,0,1,20.7,5.32Z"/></svg>