<svg xmlns="http://www.w3.org/2000/svg" viewBox="0 0 32 32"><path d="M31.12,16.05A3,3,0,0,0,28.84,15h-6l5.38-5.37a1,1,0,0,0-1.42-1.42L20,15H3.16A3,3,0,0,0,.88,16.05a3.07,3.07,0,0,0-.69,2.44A15.9,15.9,0,0,0,8.23,30H8a1,1,0,0,0,0,2H24a1,1,0,0,0,0-2h-.23a15.9,15.9,0,0,0,8-11.51A3.07,3.07,0,0,0,31.12,16.05ZM16,30A13.92,13.92,0,0,1,2.17,18.18a1,1,0,0,1,.23-.83A1,1,0,0,1,3.16,17H28.84a1,1,0,0,1,.76.35,1,1,0,0,1,.23.83A13.92,13.92,0,0,1,16,30Z"/><path d="M15,12a1,1,0,0,0,2,0,5.56,5.56,0,0,0-1.33-4.14A2.34,2.34,0,0,1,15,6a3.41,3.41,0,0,1,1.45-3.11,1,1,0,0,0-.9-1.78A5.31,5.31,0,0,0,13,6a4.28,4.28,0,0,0,1.12,3.12A3.71,3.71,0,0,1,15,12Z"/><path d="M9,12a1,1,0,0,0,2,0A5.56,5.56,0,0,0,9.67,7.86,2.34,2.34,0,0,1,9,6a3.41,3.41,0,0,1,1.45-3.11,1,1,0,0,0-.9-1.78A5.31,5.31,0,0,0,7,6,4.28,4.28,0,0,0,8.12,9.12,3.71,3.71,0,0,1,9,12Z"/></svg>