<svg xmlns="http://www.w3.org/2000/svg" viewBox="0 0 32 32"><path d="M18.68,3.77a1,1,0,0,0-.8.15L4.19,13.3l-.1.09L4,13.46a1.19,1.19,0,0,0-.16.23.16.16,0,0,1,0,.07,1.15,1.15,0,0,0-.07.36V20.5h1a1.5,1.5,0,0,1,0,3h-1v4.13a1,1,0,0,0,1,1h22.5a1,1,0,0,0,1-1V14.13C28.25,6.19,18.78,3.8,18.68,3.77Zm-.06,2.07c1.55.48,6.9,2.48,7.56,7.29h-4v1a1.51,1.51,0,0,1-1.5,1.5,1.47,1.47,0,0,1-1.11-.5,1.49,1.49,0,0,1-.39-1v-1H8ZM16.25,25.38a2.75,2.75,0,1,1,5.5,0,2.63,2.63,0,0,1-.31,1.25H16.56A2.63,2.63,0,0,1,16.25,25.38Zm10,1.25H23.57a4.75,4.75,0,1,0-9.14,0H5.75V25.35a3.49,3.49,0,0,0,0-6.7V15.13H17.34a3.49,3.49,0,0,0,6.7,0h2.21Z"/><path d="M12.5,16a3,3,0,1,0,3,3A3,3,0,0,0,12.5,16Zm0,4a1,1,0,1,1,1-1A1,1,0,0,1,12.5,20Z"/></svg>