<svg xmlns="http://www.w3.org/2000/svg" viewBox="0 0 32 32"><path d="M16,30H2V10H15v2a1,1,0,0,0,2,0V9.33l2-2.66,2,2.66v4.44a1,1,0,0,0,2,0V9a1,1,0,0,0-.2-.6L20,4.67V3a3,3,0,0,0-3-3H6A3,3,0,0,0,3,3V4.67L.2,8.4h0A1,1,0,0,0,0,9V31a1,1,0,0,0,1,1H16a1,1,0,0,0,0-2ZM3,8,4.5,6H17L15.5,8ZM5,3A1,1,0,0,1,6,2H17a1,1,0,0,1,1,1V4H5Z"/><path d="M16.63,16.9c.2-.11,1.37,0,3.37,1.34A1,1,0,0,0,21.38,18a1,1,0,0,0-.27-1.39c-1.36-.92-3.9-2.32-5.48-1.41-2.57,1.49-2.17,8.25.81,13.39a1,1,0,0,0,.86.5,1,1,0,0,0,.87-1.5C15.19,22.4,15.77,17.4,16.63,16.9Z"/><path d="M31.69,19.54c-.3-1.71-1.09-4.64-2.92-5.13-2.88-.78-7.37,4.29-8.9,10A6,6,0,0,0,25.67,32a5.89,5.89,0,0,0,3-.81,6,6,0,0,0,2.8-3.64A19.33,19.33,0,0,0,31.69,19.54ZM23.08,29a4,4,0,0,1-.88-1,4,4,0,0,1-.4-3,15.08,15.08,0,0,1,4.93-8,40.09,40.09,0,0,1-1,4.87A41.72,41.72,0,0,1,23.08,29Zm6.45-2a4,4,0,0,1-4.64,2.87,43.07,43.07,0,0,0,2.77-7.51,45.79,45.79,0,0,0,1.11-5.5C29.68,18.44,30.59,23.06,29.53,27Z"/></svg>