<svg xmlns="http://www.w3.org/2000/svg" viewBox="0 0 32 32"><path d="M11.91,31.54A9,9,0,0,1,5.54,16.18l.08-.07s4.93-4,4.93-9.12a1,1,0,1,1,2,0c0,5.08,5.53,9,5.59,9.08l.13.11a9,9,0,0,1-6.36,15.36Zm-5-13.91a7,7,0,1,0,10,0,18.18,18.18,0,0,1-5.3-6.24A17.72,17.72,0,0,1,6.92,17.63Z"/><path d="M23.84,14.29A5,5,0,0,1,20.3,5.76l.09-.07s2.27-1.87,2.27-4.17a1,1,0,1,1,2,0c0,2.26,2.56,4.11,2.59,4.13l.12.11a5,5,0,0,1,0,7.07A4.94,4.94,0,0,1,23.84,14.29ZM21.69,7.21a3,3,0,1,0,4.32,0,10.27,10.27,0,0,1-2.29-2.45A10.18,10.18,0,0,1,21.69,7.21Z"/></svg>