<svg xmlns="http://www.w3.org/2000/svg" viewBox="0 0 32 32"><path d="M16,12a1,1,0,0,1-.63-.22c-.13-.11-3.12-2.58-3.12-5.78s3-5.67,3.12-5.78a1,1,0,0,1,1.26,0C16.76.33,19.75,2.8,19.75,6s-3,5.67-3.12,5.78A1,1,0,0,1,16,12Zm0-9.61A5.74,5.74,0,0,0,14.25,6,5.74,5.74,0,0,0,16,9.61,5.74,5.74,0,0,0,17.75,6,5.74,5.74,0,0,0,16,2.39Z"/><path d="M17,16c-.44,0-.66-.47-.7-.47a1,1,0,0,1-.89-.89c0-.17-.39-4,1.88-6.29s6.12-1.9,6.29-1.88a1,1,0,0,1,.89.89c0,.17.38,4-1.88,6.29A9,9,0,0,1,17,16Zm5.49-7.56A5.84,5.84,0,0,0,18.7,9.76a5.85,5.85,0,0,0-1.32,3.8,5.87,5.87,0,0,0,3.8-1.32A5.78,5.78,0,0,0,22.49,8.44Z"/><path d="M17,23c-.44,0-.66-.47-.7-.47a1,1,0,0,1-.89-.89c0-.17-.39-4,1.88-6.29s6.12-1.9,6.29-1.88a1,1,0,0,1,.89.89c0,.17.38,4-1.88,6.29A9,9,0,0,1,17,23Zm5.49-7.56a5.84,5.84,0,0,0-3.79,1.32,5.85,5.85,0,0,0-1.32,3.8,5.87,5.87,0,0,0,3.8-1.32A5.78,5.78,0,0,0,22.49,15.44Z"/><path d="M17.07,29.56c-.44,0-.73,0-.77,0a1,1,0,0,1-.89-.89c0-.17-.39-4,1.88-6.29s6.12-1.9,6.29-1.88a1,1,0,0,1,.89.89c0,.17.38,4-1.88,6.29A8,8,0,0,1,17.07,29.56Zm5.42-7.12a5.84,5.84,0,0,0-3.79,1.32,5.85,5.85,0,0,0-1.32,3.8,5.87,5.87,0,0,0,3.8-1.32A5.78,5.78,0,0,0,22.49,22.44Z"/><path d="M15,16a9,9,0,0,1-5.59-2.35c-2.26-2.26-1.9-6.12-1.88-6.29a1,1,0,0,1,.89-.89c.17,0,4-.38,6.29,1.88s1.9,6.12,1.88,6.29c-.05.47-.5.63-.89.89C15,16,15.44,16,15,16ZM9.51,8.44a5.78,5.78,0,0,0,1.31,3.8,5.85,5.85,0,0,0,3.8,1.32,5.85,5.85,0,0,0-1.32-3.8A5.84,5.84,0,0,0,9.51,8.44Z"/><path d="M15,23a9,9,0,0,1-5.59-2.35c-2.26-2.26-1.9-6.12-1.88-6.29a1,1,0,0,1,.89-.89c.17,0,4-.38,6.29,1.88s1.9,6.12,1.88,6.29a1,1,0,0,1-.89.89S15.44,23,15,23ZM9.51,15.44a5.78,5.78,0,0,0,1.31,3.8,5.85,5.85,0,0,0,3.8,1.32,5.85,5.85,0,0,0-1.32-3.8A5.84,5.84,0,0,0,9.51,15.44Z"/><path d="M14.93,29.56a8,8,0,0,1-5.52-1.91c-2.26-2.26-1.9-6.12-1.88-6.29a1,1,0,0,1,.89-.89c.17,0,4-.38,6.29,1.88s1.9,6.12,1.88,6.29a1,1,0,0,1-.89.89S15.37,29.56,14.93,29.56ZM9.51,22.44a5.78,5.78,0,0,0,1.31,3.8,5.85,5.85,0,0,0,3.8,1.32,5.85,5.85,0,0,0-1.32-3.8A5.84,5.84,0,0,0,9.51,22.44Z"/><path d="M16,32a1,1,0,0,1-1-1V11a1,1,0,0,1,2,0V31A1,1,0,0,1,16,32Z"/></svg>