<svg xmlns="http://www.w3.org/2000/svg" viewBox="0 0 32 32"><path d="M4.32,14.05A5.88,5.88,0,0,1,7,13.44h.19a6,6,0,0,1,5.51,3.63h0a4.23,4.23,0,0,0,2.22,2.22,6,6,0,0,1,3.64,5.51V25a6,6,0,0,1-.61,2.64,5.86,5.86,0,0,1-5.29,3.16,6.22,6.22,0,0,1-1.8-.26l-.21-.07a13.61,13.61,0,0,1-9.12-9.11l-.06-.22A6,6,0,0,1,4.32,14.05Zm6.83,5.34a1,1,0,0,0,0,1.41,1,1,0,0,0,1.42,0,1.12,1.12,0,0,0,.24-.44,6.36,6.36,0,0,1-1.22-1.21A.91.91,0,0,0,11.15,19.39ZM3.34,20.55l.07.22a11.63,11.63,0,0,0,7.77,7.78l.22.06A3.81,3.81,0,0,0,16.52,25V24.8a4,4,0,0,0-2.12-3.51,1.12,1.12,0,0,1-.42.92,3,3,0,0,1-4.24,0,3,3,0,0,1,0-4.24h0a1.27,1.27,0,0,1,.9-.47,4,4,0,0,0-3.49-2.06H7a4,4,0,0,0-1.76.4A4,4,0,0,0,3.34,20.55Z"/><path d="M16.6,18a6,6,0,0,1-1.27-2.39l-.05-.18a6,6,0,0,1,2.08-6.27A4.16,4.16,0,0,0,18.93,6.4a6,6,0,0,1,4.39-4.94l.18,0a5.78,5.78,0,0,1,2.71-.1,6,6,0,0,1,4.63,6.1v.22A13.62,13.62,0,0,1,24.38,18.8l-.19.12a6.19,6.19,0,0,1-3.27.94A5.73,5.73,0,0,1,16.6,18Zm3.91-9.85a6.31,6.31,0,0,1-.87,1.51A1.09,1.09,0,0,0,20,10a1,1,0,0,0,.76.1,1,1,0,0,0,.61-.47A1,1,0,0,0,21,8.25,1,1,0,0,0,20.51,8.11Zm-3.3,6.76.05.18a3.84,3.84,0,0,0,.85,1.59,4,4,0,0,0,5,.58l.19-.12a11.61,11.61,0,0,0,5.5-9.52V7.35a4,4,0,0,0-3-4.07,3.91,3.91,0,0,0-.76-.07,4.21,4.21,0,0,0-1,.14l-.17,0A4,4,0,0,0,21,6.17a2.94,2.94,0,0,1,2.36,2.17A3,3,0,0,1,19,11.71a4.29,4.29,0,0,1-.84-.6A4,4,0,0,0,17.21,14.87Z"/></svg>