<svg xmlns="http://www.w3.org/2000/svg" viewBox="0 0 32 32"><path d="M29.15,2.85A8.46,8.46,0,0,0,22.52.42a10.55,10.55,0,0,0-6.8,3.13,10.69,10.69,0,0,0-3.08,6.22A4.37,4.37,0,0,1,11,12.61c-.19.15-.37.32-.55.49a6.62,6.62,0,0,0-1.85,6.09L6.44,21.32A4,4,0,0,0,1.58,27.6a3.86,3.86,0,0,0,1.8,1,3.86,3.86,0,0,0,1,1.8,4,4,0,0,0,6.28-4.86l2.14-2.13a5.91,5.91,0,0,0,1.33.17,6.75,6.75,0,0,0,4.75-2c.17-.18.34-.36.49-.55a4.37,4.37,0,0,1,2.84-1.68,10.69,10.69,0,0,0,6.22-3.08,10.55,10.55,0,0,0,3.13-6.8A8.5,8.5,0,0,0,29.15,2.85ZM8.65,24.77a1,1,0,0,0,0,1.41A2,2,0,0,1,5.82,29a1.92,1.92,0,0,1-.57-1.31,1,1,0,0,0-1-.95A1.92,1.92,0,0,1,3,26.18a2,2,0,0,1,0-2.83,2,2,0,0,1,2.83,0,1,1,0,0,0,1.41,0l2.19-2.19a5.14,5.14,0,0,0,1.42,1.42ZM29.58,9.36A8.53,8.53,0,0,1,27,14.87a8.63,8.63,0,0,1-5,2.5,6.34,6.34,0,0,0-4.15,2.41,4.4,4.4,0,0,1-.35.39,4.29,4.29,0,0,1-6,.36,4.29,4.29,0,0,1,.36-6,4.4,4.4,0,0,1,.39-.35A6.34,6.34,0,0,0,14.63,10a8.63,8.63,0,0,1,2.5-5,8.53,8.53,0,0,1,5.51-2.55l.45,0a6.48,6.48,0,0,1,4.65,1.86A6.56,6.56,0,0,1,29.58,9.36Z"/></svg>