<svg xmlns="http://www.w3.org/2000/svg" viewBox="0 0 32 32"><path d="M25.22,8.92a1,1,0,0,0-1-.37,1,1,0,0,0-.76.78c-1,5.11-2.14,6.62-5.68,7.72-2.58.81-4.3,2.17-5.1,4-1,2.32-.56,5.28,1.32,9l0,.05a.83.83,0,0,0,.11.15,1.85,1.85,0,0,0,.14.14l.15.09a.91.91,0,0,0,.14.07,13.71,13.71,0,0,0,4,.59,10.46,10.46,0,0,0,7.59-2.95C28.51,25.94,33.08,19.4,25.22,8.92Zm-.45,17.93c-2.83,2.83-6.83,2.46-8.63,2.11a7.15,7.15,0,0,1,5.3-4.67,1,1,0,0,0-.4-2A8.84,8.84,0,0,0,14.83,27c-.77-2.12-.89-3.85-.33-5.15s1.85-2.3,3.85-2.92c4-1.24,5.54-3.27,6.54-7C29.86,19.76,27,24.59,24.77,26.85Z"/><path d="M13.58,16.28a.51.51,0,0,0,.16-.09.8.8,0,0,0,.13-.13A1,1,0,0,0,14,15.9l0-.05c.82-1.64,1.62-4,.75-6.19a5.33,5.33,0,0,0-3.44-3C9.17,5.93,8.44,5.2,7.76,1.77A1,1,0,0,0,6,1.37C.58,8.56,3.75,13.09,5.36,14.7a7.29,7.29,0,0,0,5.29,2.06,9.32,9.32,0,0,0,2.81-.41A.37.37,0,0,0,13.58,16.28Zm-6.81-3C4.5,11,4.37,7.9,6.37,4.4a6,6,0,0,0,4.32,4.17,3.37,3.37,0,0,1,2.23,1.84A4.12,4.12,0,0,1,13,12.77a6.16,6.16,0,0,0-3.94-2.59,1,1,0,0,0-.39,2,4.35,4.35,0,0,1,3.12,2.53A5.86,5.86,0,0,1,6.77,13.28Z"/></svg>