<svg xmlns="http://www.w3.org/2000/svg" viewBox="0 0 32 32"><path d="M30.19,5.81a3.48,3.48,0,0,0-1-2.48,3.59,3.59,0,0,0-5,0l-6.9,6.9a3.26,3.26,0,0,0-3.53.7L12.73,12a3.25,3.25,0,0,0-3.54.7,3.21,3.21,0,0,0-.94,2.24A3.24,3.24,0,0,0,5.3,19.42L4.24,20.48a3.27,3.27,0,0,0,0,4.6l3.18,3.18a3.26,3.26,0,0,0,4.6,0,1,1,0,0,0,0-1.42,1,1,0,0,0-1.41,0,1.25,1.25,0,0,1-1.77,0L5.66,23.66a1.25,1.25,0,0,1,0-1.77L6.54,21l.71.71A1,1,0,0,0,8.66,20.3L7.42,19.07a1.27,1.27,0,0,1-.36-.89,1.25,1.25,0,0,1,2.13-.88L11.84,20a1,1,0,0,0,1.42,0,1,1,0,0,0,0-1.41l-2.65-2.66a1.24,1.24,0,1,1,1.76-1.76l.89.88a1,1,0,0,0,1.41-1.41l-.35-.36.88-.88a1.25,1.25,0,0,1,1.77,0l3.18,3.18a1.25,1.25,0,0,1,0,1.77l-.88.88L17.5,16.41a1,1,0,0,0-1.41,0,1,1,0,0,0,0,1.42l2.29,2.3a1.23,1.23,0,0,1,0,1.76,1.24,1.24,0,0,1-1.76,0,1,1,0,0,0-1.42,1.42,1.25,1.25,0,0,1,0,1.77,1.29,1.29,0,0,1-1.77,0l-2.29-2.3a1,1,0,0,0-1.42,0,1,1,0,0,0,0,1.41l2.3,2.3a3.24,3.24,0,0,0,5.54-2.24,3.21,3.21,0,0,0,2.24-.94,3.28,3.28,0,0,0,.71-3.54l1.06-1.06a3.26,3.26,0,0,0,.7-3.53l6.9-6.9A3.47,3.47,0,0,0,30.19,5.81ZM27.75,6.87,21,13.59l-2.13-2.13,6.72-6.71a1.53,1.53,0,0,1,2.12,0,1.46,1.46,0,0,1,.44,1.06A1.47,1.47,0,0,1,27.75,6.87Z"/></svg>