<svg xmlns="http://www.w3.org/2000/svg" viewBox="0 0 32 32"><path d="M31.07,14.73a11.66,11.66,0,0,0-7.7-5l-1-3.49a1,1,0,0,0-1-.73c-7.3,0-10.87,3.12-11,3.25a1,1,0,0,0-.16,1.32l1.37,2c-.74.39-1.43.81-2.07,1.22a6.3,6.3,0,0,1-2-1A9.27,9.27,0,0,0,1.43,10.5a1,1,0,0,0-1,1,8.55,8.55,0,0,0,1.7,5,8.55,8.55,0,0,0-1.7,5,1,1,0,0,0,1,1,9.27,9.27,0,0,0,6.08-1.77,6,6,0,0,1,2.27-1.07c.66.4,1.38.81,2.13,1.2l-2.28,3a1,1,0,0,0-.14.93,1,1,0,0,0,.7.64l4,1a1,1,0,0,0,.24,0,1,1,0,0,0,.6-.2l3.94-3a13,13,0,0,0,2,.16c5.08,0,8.44-3.3,10-5.26A3,3,0,0,0,31.07,14.73Zm-18.61-5a16.6,16.6,0,0,1,8.22-2.23l.56,2h-.31a18.78,18.78,0,0,0-7.49,1.69ZM6.4,19.07a6.94,6.94,0,0,1-3.87,1.39,6.72,6.72,0,0,1,1.61-3.25,1,1,0,0,0,0-1.41,7,7,0,0,1-1.61-3.26A6.94,6.94,0,0,1,6.4,13.93a11.1,11.1,0,0,0,1.39.83,2.9,2.9,0,0,0,.09,3.44A10.71,10.71,0,0,0,6.4,19.07Zm7.81,5.34-2.08-.51,1.61-2.15a25.35,25.35,0,0,0,2.68,1ZM9.73,17.26a1,1,0,0,1-.47-.83,1,1,0,0,1,.43-.83c2.18-1.53,6.54-4.1,11.24-4.1a12,12,0,0,1,1.22.07,7.93,7.93,0,0,0,0,9.84,7.88,7.88,0,0,1-1.2.09C16.81,21.5,12.14,18.85,9.73,17.26ZM29.35,17a12.38,12.38,0,0,1-5,3.86,6,6,0,0,1-1.89-4.36,5.93,5.93,0,0,1,2-4.45,9.64,9.64,0,0,1,5,3.8h0A1,1,0,0,1,29.35,17Z"/><circle cx="25.43" cy="15.5" r="1"/></svg>