<svg xmlns="http://www.w3.org/2000/svg" viewBox="0 0 32 32"><path d="M29.06,2.94a1.49,1.49,0,0,0-2.12,0L22.87,7a16.47,16.47,0,0,0-22,8.39,1.48,1.48,0,0,0,0,1.2,16.54,16.54,0,0,0,5.57,6.83L2.94,26.94a1.49,1.49,0,0,0,0,2.12,1.5,1.5,0,0,0,2.12,0l24-24A1.49,1.49,0,0,0,29.06,2.94ZM3.91,16a13.5,13.5,0,0,1,9.81-7.3,6,6,0,0,0-2.14,9.59l-3,3A13.39,13.39,0,0,1,3.91,16Z"/><path d="M31.12,15.4a16.42,16.42,0,0,0-3.28-4.88l-2.12,2.12A13.33,13.33,0,0,1,28.09,16,13.5,13.5,0,0,1,16,23.5c-.37,0-.73,0-1.09-.05l-2.62,2.62A15.76,15.76,0,0,0,16,26.5a16.52,16.52,0,0,0,15.12-9.9A1.48,1.48,0,0,0,31.12,15.4Z"/></svg>