<svg xmlns="http://www.w3.org/2000/svg" viewBox="0 0 140.1 32">
  <defs>
    <style>
          .a {
            fill: var(--color-primary);
          }
          .b {
            fill: var(--color-text-primary);
          }
    </style>
  </defs>
  <path class="a" d="M22.25,32H9.75a3.5,3.5,0,0,1-3.5-3.5V22.94A8.5,8.5,0,0,1,7.8,6.28,8.49,8.49,0,0,1,23.05,3.76h.45a8.5,8.5,0,0,1,2.25,16.69V28.5A3.5,3.5,0,0,1,22.25,32ZM8.48,8.25a6.49,6.49,0,0,0-1.06,12.9,1,1,0,0,1,.83,1V28.5A1.5,1.5,0,0,0,9.75,30h12.5a1.5,1.5,0,0,0,1.5-1.5V19.64a1,1,0,0,1,.83-1A6.49,6.49,0,0,0,23.5,5.75a7.72,7.72,0,0,0-.84.06,1,1,0,0,1-1-.5A6.49,6.49,0,0,0,9.6,7.42a1,1,0,0,1-1,.84Z" />
  <path class="a" d="M19.12,25.75a1,1,0,0,1-1-1v-5a1,1,0,0,1,2,0v5A1,1,0,0,1,19.12,25.75Z" />
  <path class="a" d="M12.88,25.75a1,1,0,0,1-1-1v-5a1,1,0,0,1,2,0v5A1,1,0,0,1,12.88,25.75Z" />
  <path class="b" d="M54.23,26.66,50.6,21.5c-.33,0-.69.05-1.05.05H45.4v5.11H43V9.86h6.55c4.37,0,7,2.21,7,5.86a5.3,5.3,0,0,1-3.7,5.3l4,5.64Zm-.07-10.94c0-2.41-1.61-3.77-4.68-3.77H45.4v7.56h4.08C52.55,19.51,54.16,18.12,54.16,15.72Z" />
  <path class="b" d="M71.56,21.07H61.24a4.3,4.3,0,0,0,4.6,3.72,4.78,4.78,0,0,0,3.68-1.54l1.27,1.49a6.4,6.4,0,0,1-5,2.06c-4.1,0-6.84-2.71-6.84-6.5a6.23,6.23,0,0,1,6.39-6.48c3.67,0,6.28,2.64,6.28,6.55C71.6,20.56,71.58,20.85,71.56,21.07ZM61.24,19.41H69.4a4.11,4.11,0,0,0-8.16,0Z" />
  <path class="b" d="M73.62,20.3a6.36,6.36,0,0,1,6.72-6.48,5.65,5.65,0,0,1,5.18,2.71l-1.75,1.13a3.94,3.94,0,0,0-3.45-1.82A4.22,4.22,0,0,0,76,20.3a4.22,4.22,0,0,0,4.37,4.49A4,4,0,0,0,83.77,23l1.75,1.11a5.68,5.68,0,0,1-5.18,2.73A6.37,6.37,0,0,1,73.62,20.3Z" />
  <path class="b" d="M88.09,10a1.51,1.51,0,0,1,1.56-1.51A1.49,1.49,0,0,1,91.21,10a1.56,1.56,0,0,1-3.12.05Zm.41,3.94h2.3V26.66H88.5Z" />
  <path class="b" d="M108.37,20.3a6.18,6.18,0,0,1-6.43,6.5,5.43,5.43,0,0,1-4.44-2.06v6.58H95.19V13.94H97.4v2a5.43,5.43,0,0,1,4.54-2.14A6.17,6.17,0,0,1,108.37,20.3Zm-2.33,0a4.28,4.28,0,1,0-8.56,0,4.28,4.28,0,1,0,8.56,0Z" />
  <path class="b" d="M123,21.07H112.69a4.31,4.31,0,0,0,4.61,3.72A4.74,4.74,0,0,0,121,23.25l1.27,1.49a6.38,6.38,0,0,1-5,2.06c-4.11,0-6.84-2.71-6.84-6.5a6.23,6.23,0,0,1,6.38-6.48c3.67,0,6.29,2.64,6.29,6.55A5.91,5.91,0,0,1,123,21.07Zm-10.32-1.66h8.16a4.11,4.11,0,0,0-8.16,0Z" />
  <path class="a" d="M125.84,10a1.51,1.51,0,0,1,1.56-1.51A1.49,1.49,0,0,1,129,10a1.56,1.56,0,0,1-3.12.05Zm.41,3.94h2.3V26.66h-2.3Z" />
  <path class="a" d="M140.1,25.92a4.35,4.35,0,0,1-2.79.88c-2.56,0-4-1.41-4-4v-7h-2.16v-1.9h2.16V11.15h2.31v2.79h3.64v1.9h-3.64v6.88a1.88,1.88,0,0,0,2,2.14,2.93,2.93,0,0,0,1.8-.6Z" />
</svg>